<svg width="471" height="401" viewBox="0 0 471 401" fill="none" xmlns="http://www.w3.org/2000/svg">
<path d="M17.4716 401H460.261C460.261 401 510.502 225.15 385.672 169.147C260.843 113.144 228.357 210.361 125.966 223.964C23.5745 237.567 -29.9943 296.93 17.4716 401Z" fill="#ECECEC"/>
<path d="M273.886 61.9101C264.536 61.9101 256.958 54.3322 256.958 44.9843C256.958 35.6343 264.536 28.0565 273.886 28.0565C283.234 28.0565 290.812 35.6343 290.812 44.9843C290.812 54.3322 283.234 61.9101 273.886 61.9101ZM317.323 38.182H310.543C309.598 33.0369 307.586 28.1778 304.613 23.8732L309.41 19.0769C310.014 18.4747 310.014 17.4955 309.41 16.891L301.979 9.46045C301.375 8.85603 300.396 8.85603 299.791 9.46045L294.997 14.2546C290.69 11.2845 285.833 9.27198 280.686 8.32745V1.54676C280.686 0.693214 279.995 -3.05176e-05 279.141 -3.05176e-05H268.63C267.777 -3.05176e-05 267.084 0.693214 267.084 1.54676V8.32745C261.938 9.27198 257.081 11.2845 252.777 14.2546L247.981 9.46045C247.376 8.85603 246.397 8.85603 245.793 9.46045L238.362 16.891C237.758 17.4955 237.758 18.4747 238.362 19.0769L243.158 23.8732C240.186 28.1778 238.173 33.0369 237.231 38.182H230.448C229.595 38.182 228.901 38.8752 228.901 39.7288V50.2378C228.901 51.0913 229.595 51.7845 230.448 51.7845H237.231C238.173 56.9296 240.186 61.7888 243.158 66.0933L238.362 70.8896C237.758 71.494 237.758 72.4711 238.362 73.0755L245.793 80.5061C246.397 81.1105 247.376 81.1105 247.981 80.5061L252.777 75.7119C257.081 78.682 261.938 80.6945 267.084 81.6391V88.4198C267.084 89.2755 267.777 89.9666 268.63 89.9666H279.141C279.995 89.9666 280.686 89.2755 280.686 88.4198V81.6391C285.833 80.6945 290.69 78.682 294.997 75.7119L299.791 80.5061C300.396 81.1105 301.375 81.1105 301.979 80.5061L309.41 73.0755C310.014 72.4711 310.014 71.494 309.41 70.8896L304.613 66.0933C307.586 61.7888 309.598 56.9296 310.543 51.7845H317.323C318.177 51.7845 318.868 51.0913 318.868 50.2378V39.7288C318.868 38.8752 318.177 38.182 317.323 38.182Z" fill="#C8C8C8"/>
<path d="M273.885 21.2691C260.808 21.2691 250.17 31.9071 250.17 44.9844C250.17 58.0617 260.808 68.6997 273.885 68.6997C286.962 68.6997 297.6 58.0617 297.6 44.9844C297.6 31.9071 286.962 21.2691 273.885 21.2691ZM273.885 69.8621C260.166 69.8621 249.007 58.7012 249.007 44.9844C249.007 31.2656 260.166 20.1067 273.885 20.1067C287.602 20.1067 298.763 31.2656 298.763 44.9844C298.763 58.7012 287.602 69.8621 273.885 69.8621Z" fill="white"/>
<path d="M341.75 101.101C335.308 101.101 330.09 95.8803 330.09 89.4391C330.09 82.9997 335.308 77.7762 341.75 77.7762C348.189 77.7762 353.413 82.9997 353.413 89.4391C353.413 95.8803 348.189 101.101 341.75 101.101ZM371.677 84.755H367.003C366.354 81.2094 364.968 77.8611 362.921 74.8949L366.224 71.5915C366.639 71.1745 366.639 70.5004 366.224 70.0859L361.103 64.9648C360.689 64.5478 360.014 64.5478 359.597 64.9648L356.294 68.2682C353.328 66.2207 349.98 64.835 346.437 64.1858V59.5117C346.437 58.9249 345.96 58.448 345.37 58.448H338.129C337.54 58.448 337.066 58.9249 337.066 59.5117V64.1858C333.518 64.835 330.172 66.2207 327.206 68.2682L323.902 64.9648C323.485 64.5478 322.811 64.5478 322.397 64.9648L317.276 70.0859C316.859 70.5004 316.859 71.1745 317.276 71.5915L320.579 74.8949C318.532 77.8611 317.146 81.2094 316.497 84.755H311.825C311.233 84.755 310.756 85.2294 310.756 85.8186V93.0595C310.756 93.6488 311.233 94.1257 311.825 94.1257H316.497C317.146 97.67 318.532 101.017 320.579 103.984L317.276 107.288C316.859 107.703 316.859 108.378 317.276 108.794L322.397 113.914C322.811 114.33 323.485 114.33 323.902 113.914L327.206 110.61C330.172 112.657 333.518 114.043 337.066 114.694V119.366C337.066 119.954 337.54 120.431 338.129 120.431H345.37C345.96 120.431 346.437 119.954 346.437 119.366V114.694C349.98 114.043 353.328 112.657 356.294 110.61L359.597 113.914C360.014 114.33 360.689 114.33 361.103 113.914L366.224 108.794C366.639 108.378 366.639 107.703 366.224 107.288L362.921 103.984C364.968 101.017 366.354 97.67 367.003 94.1257H371.677C372.264 94.1257 372.741 93.6488 372.741 93.0595V85.8186C372.741 85.2294 372.264 84.755 371.677 84.755Z" fill="#DEDEDE"/>
<path d="M341.749 73.0993C332.741 73.0993 325.411 80.4291 325.411 89.4399C325.411 98.4483 332.741 105.778 341.749 105.778C350.76 105.778 358.09 98.4483 358.09 89.4399C358.09 80.4291 350.76 73.0993 341.749 73.0993ZM341.749 106.579C332.299 106.579 324.61 98.8897 324.61 89.4399C324.61 79.9877 332.299 72.2986 341.749 72.2986C351.201 72.2986 358.89 79.9877 358.89 89.4399C358.89 98.8897 351.201 106.579 341.749 106.579Z" fill="white"/>
<path d="M89.9201 58.4472H32.7944C30.9013 58.4472 29.3667 56.9124 29.3667 55.0187V25.488C29.3667 23.5964 30.9013 22.0616 32.7944 22.0616H89.9201C91.8131 22.0616 93.3478 23.5964 93.3478 25.488V55.0187C93.3478 56.9124 91.8131 58.4472 89.9201 58.4472Z" fill="#C8C8C8"/>
<path d="M87.8957 33.0965H34.8188C34.275 33.0965 33.8343 32.656 33.8343 32.1118V29.389C33.8343 28.8448 34.275 28.4043 34.8188 28.4043H87.8957C88.4395 28.4043 88.8804 28.8448 88.8804 29.389V32.1118C88.8804 32.656 88.4395 33.0965 87.8957 33.0965Z" fill="#D1D1D1"/>
<path d="M87.8957 42.6005H34.8188C34.275 42.6005 33.8343 42.16 33.8343 41.6158V38.8929C33.8343 38.3488 34.275 37.9083 34.8188 37.9083H87.8957C88.4395 37.9083 88.8804 38.3488 88.8804 38.8929V41.6158C88.8804 42.16 88.4395 42.6005 87.8957 42.6005Z" fill="#F7F7F7"/>
<path d="M63.479 52.1046H34.5656C34.1616 52.1046 33.8343 51.7777 33.8343 51.3731V48.1439C33.8343 47.7393 34.1616 47.4124 34.5656 47.4124H63.479C63.8828 47.4124 64.2103 47.7393 64.2103 48.1439V51.3731C64.2103 51.7777 63.8828 52.1046 63.479 52.1046Z" fill="#F7F7F7"/>
<path d="M438.373 83.9304H402.87C401.275 83.9304 399.982 82.6366 399.982 81.0403V39.6975C399.982 38.1018 401.275 36.8095 402.87 36.8095H438.373C439.972 36.8095 441.264 38.1018 441.264 39.6975V81.0403C441.264 82.6366 439.972 83.9304 438.373 83.9304Z" fill="#C8C8C8"/>
<path d="M413.286 49.2135H406.038C405.703 49.2135 405.434 48.9413 405.434 48.6059V41.3614C405.434 41.0288 405.703 40.7566 406.038 40.7566H413.286C413.618 40.7566 413.89 41.0288 413.89 41.3614V48.6059C413.89 48.9413 413.618 49.2135 413.286 49.2135Z" fill="white"/>
<path d="M424.245 49.2136H417C416.665 49.2136 416.395 48.9404 416.395 48.6052V41.361C416.395 41.0259 416.665 40.7555 417 40.7555H424.245C424.58 40.7555 424.853 41.0259 424.853 41.361V48.6052C424.853 48.9404 424.58 49.2136 424.245 49.2136Z" fill="white"/>
<path d="M435.204 49.2145H427.96C427.625 49.2145 427.354 48.9435 427.354 48.6089V41.3648C427.354 41.0274 427.625 40.7564 427.96 40.7564H435.204C435.538 40.7564 435.812 41.0274 435.812 41.3648V48.6089C435.812 48.9435 435.538 49.2145 435.204 49.2145Z" fill="white"/>
<path d="M434.209 56.6121H407.037C406.149 56.6121 405.431 55.8931 405.431 55.0078C405.431 54.1225 406.149 53.4015 407.037 53.4015H434.209C435.091 53.4015 435.812 54.1225 435.812 55.0078C435.812 55.8931 435.091 56.6121 434.209 56.6121Z" fill="#D1D1D1"/>
<path d="M434.209 62.2847H407.037C406.149 62.2847 405.431 61.5664 405.431 60.6802C405.431 59.7937 406.149 59.0753 407.037 59.0753H434.209C435.091 59.0753 435.812 59.7937 435.812 60.6802C435.812 61.5664 435.091 62.2847 434.209 62.2847Z" fill="#D1D1D1"/>
<path d="M434.209 67.9568H407.037C406.149 67.9568 405.431 67.2384 405.431 66.3522C405.431 65.4661 406.149 64.7474 407.037 64.7474H434.209C435.091 64.7474 435.812 65.4661 435.812 66.3522C435.812 67.2384 435.091 67.9568 434.209 67.9568Z" fill="#D1D1D1"/>
<path d="M434.209 73.6296H407.037C406.149 73.6296 405.431 72.911 405.431 72.0248C405.431 71.1386 406.149 70.4203 407.037 70.4203H434.209C435.091 70.4203 435.812 71.1386 435.812 72.0248C435.812 72.911 435.091 73.6296 434.209 73.6296Z" fill="#D1D1D1"/>
<path d="M434.209 79.3018H407.037C406.149 79.3018 405.431 78.5834 405.431 77.6972C405.431 76.8107 406.149 76.0924 407.037 76.0924H434.209C435.091 76.0924 435.812 76.8107 435.812 77.6972C435.812 78.5834 435.091 79.3018 434.209 79.3018Z" fill="#D1D1D1"/>
<path d="M205.273 72.0554H124.621C123.078 72.0554 121.828 70.8056 121.828 69.2628V22.9167C121.828 21.3738 123.078 20.1241 124.621 20.1241H205.273C206.816 20.1241 208.065 21.3738 208.065 22.9167V69.2628C208.065 70.8056 206.816 72.0554 205.273 72.0554Z" fill="#E8E8E8"/>
<mask id="mask0_10_606" style="mask-type:luminance" maskUnits="userSpaceOnUse" x="121" y="20" width="88" height="53">
<path d="M205.273 72.0554H124.621C123.078 72.0554 121.828 70.8056 121.828 69.2628V22.9167C121.828 21.3739 123.078 20.1241 124.621 20.1241H205.273C206.816 20.1241 208.065 21.3739 208.065 22.9167V69.2628C208.065 70.8056 206.816 72.0554 205.273 72.0554Z" fill="white"/>
</mask>
<g mask="url(#mask0_10_606)">
<path d="M117.791 72.2646C118.657 69.46 119.826 66.7492 121.269 64.1938C123.447 60.3367 126.326 56.7747 130.1 54.4585C133.875 52.1423 138.631 51.1975 142.833 52.5948C145.827 53.5914 148.32 55.6585 150.994 57.3328C153.668 59.0052 156.845 60.3427 159.918 59.6311C162.63 59.0012 164.728 56.9043 166.601 54.8432C169.914 51.1955 173.059 47.3285 176.996 44.3644C180.933 41.3984 185.866 39.3772 190.748 40.0729C195.312 40.7247 199.223 43.6249 202.636 46.7285C206.086 49.8659 209.259 53.3124 212.102 57.0099V82.6537H118.62L117.791 72.2646Z" fill="#FE6C61"/>
<path d="M211.324 31.2009H117.995V17.7959H211.324V31.2009Z" fill="#373660"/>
</g>
<path d="M131.195 24.7805C131.195 25.8608 130.32 26.7359 129.24 26.7359C128.161 26.7359 127.286 25.8608 127.286 24.7805C127.286 23.7021 128.161 22.827 129.24 22.827C130.32 22.827 131.195 23.7021 131.195 24.7805Z" fill="#FE6C61"/>
<path d="M138.856 24.7805C138.856 25.8608 137.981 26.7359 136.902 26.7359C135.822 26.7359 134.947 25.8608 134.947 24.7805C134.947 23.7021 135.822 22.827 136.902 22.827C137.981 22.827 138.856 23.7021 138.856 24.7805Z" fill="white"/>
<path d="M146.518 24.7805C146.518 25.8608 145.643 26.7359 144.563 26.7359C143.484 26.7359 142.609 25.8608 142.609 24.7805C142.609 23.7021 143.484 22.827 144.563 22.827C145.643 22.827 146.518 23.7021 146.518 24.7805Z" fill="white"/>
<path d="M74.302 93.9061H32.2077C30.6388 93.9061 29.3667 92.6343 29.3667 91.0656V68.4656C29.3667 66.8969 30.6388 65.6252 32.2077 65.6252H74.302C75.8711 65.6252 77.1431 66.8969 77.1431 68.4656V91.0656C77.1431 92.6343 75.8711 93.9061 74.302 93.9061Z" fill="#C8C8C8"/>
<path d="M53.3981 74.2761H34.1736C33.8808 74.2761 33.6436 74.0388 33.6436 73.7458V71.5293C33.6436 71.2383 33.8808 71.0011 34.1736 71.0011H53.3981C53.6907 71.0011 53.9279 71.2383 53.9279 71.5293V73.7458C53.9279 74.0388 53.6907 74.2761 53.3981 74.2761Z" fill="#D1D1D1"/>
<path d="M53.3981 84.2206H34.1736C33.8808 84.2206 33.6436 83.9834 33.6436 83.6924V81.4758C33.6436 81.1828 33.8808 80.9456 34.1736 80.9456H53.3981C53.6907 80.9456 53.9279 81.1828 53.9279 81.4758V83.6924C53.9279 83.9834 53.6907 84.2206 53.3981 84.2206Z" fill="#F7F7F7"/>
<path d="M73.2629 84.2206H56.2744C55.9987 84.2206 55.7753 83.9973 55.7753 83.7223V81.4439C55.7753 81.1688 55.9987 80.9456 56.2744 80.9456H73.2629C73.5385 80.9456 73.7618 81.1688 73.7618 81.4439V83.7223C73.7618 83.9973 73.5385 84.2206 73.2629 84.2206Z" fill="#F7F7F7"/>
<path d="M64.7766 74.2761H56.1353C55.9365 74.2761 55.7753 74.1146 55.7753 73.9153V71.3599C55.7753 71.1605 55.9365 71.0011 56.1353 71.0011H64.7766C64.9753 71.0011 65.1366 71.1605 65.1366 71.3599V73.9153C65.1366 74.1146 64.9753 74.2761 64.7766 74.2761Z" fill="#F7F7F7"/>
<path d="M43.9062 79.2155H34.0275C33.8156 79.2155 33.6436 79.042 33.6436 78.8308V76.3232C33.6436 76.1099 33.8156 75.9385 34.0275 75.9385H43.9062C44.1181 75.9385 44.2902 76.1099 44.2902 76.3232V78.8308C44.2902 79.042 44.1181 79.2155 43.9062 79.2155Z" fill="#F7F7F7"/>
<path d="M64.6269 79.2155H46.881C46.5995 79.2155 46.3713 78.9862 46.3713 78.7052V76.4488C46.3713 76.1677 46.5995 75.9385 46.881 75.9385H64.6269C64.9083 75.9385 65.1366 76.1677 65.1366 76.4488V78.7052C65.1366 78.9862 64.9083 79.2155 64.6269 79.2155Z" fill="#F7F7F7"/>
<path d="M73.448 79.2155H66.9527C66.7793 79.2155 66.6387 79.0739 66.6387 78.9005V76.2534C66.6387 76.08 66.7793 75.9385 66.9527 75.9385H73.448C73.6215 75.9385 73.762 76.08 73.762 76.2534V78.9005C73.762 79.0739 73.6215 79.2155 73.448 79.2155Z" fill="#F7F7F7"/>
<path d="M73.448 74.2761H66.9527C66.7793 74.2761 66.6387 74.1345 66.6387 73.9611V71.314C66.6387 71.1406 66.7793 71.0011 66.9527 71.0011H73.448C73.6215 71.0011 73.762 71.1406 73.762 71.314V73.9611C73.762 74.1345 73.6215 74.2761 73.448 74.2761Z" fill="#F7F7F7"/>
<path d="M53.7884 85.9528H60.1452C60.3168 85.9528 60.456 86.0923 60.456 86.2637V88.9168C60.456 89.0883 60.3168 89.2278 60.1452 89.2278H53.7884C53.6166 89.2278 53.4774 89.0883 53.4774 88.9168V86.2637C53.4774 86.0923 53.6166 85.9528 53.7884 85.9528Z" fill="#D1D1D1"/>
<path d="M62.414 85.9528H68.7708C68.9424 85.9528 69.0815 86.0923 69.0815 86.2637V88.9168C69.0815 89.0883 68.9424 89.2278 68.7708 89.2278H62.414C62.2423 89.2278 62.1032 89.0883 62.1032 88.9168V86.2637C62.1032 86.0923 62.2423 85.9528 62.414 85.9528Z" fill="#D1D1D1"/>
<path d="M71.452 85.9528H73.0387C73.4381 85.9528 73.7618 86.2757 73.7618 86.6764V88.5042C73.7618 88.9049 73.4381 89.2278 73.0387 89.2278H71.452C71.0525 89.2278 70.7288 88.9049 70.7288 88.5042V86.6764C70.7288 86.2757 71.0525 85.9528 71.452 85.9528Z" fill="#D1D1D1"/>
<path d="M42.6289 85.9528H51.2702C51.4689 85.9528 51.63 86.1143 51.63 86.3116V88.869C51.63 89.0663 51.4689 89.2278 51.2702 89.2278H42.6289C42.4301 89.2278 42.2689 89.0663 42.2689 88.869V86.3116C42.2689 86.1143 42.4301 85.9528 42.6289 85.9528Z" fill="#F7F7F7"/>
<path d="M33.9577 85.9528H40.4529C40.6263 85.9528 40.767 86.0923 40.767 86.2658V88.9148C40.767 89.0882 40.6263 89.2278 40.4529 89.2278H33.9577C33.7843 89.2278 33.6436 89.0882 33.6436 88.9148V86.2658C33.6436 86.0923 33.7843 85.9528 33.9577 85.9528Z" fill="#F7F7F7"/>
<path d="M252.372 234.577L250.533 237.424L275.089 253.286L276.928 250.439L252.372 234.577Z" fill="#2F2E41"/>
<path d="M278.145 253.242C281.192 248.524 282.706 244.083 281.527 243.321C280.348 242.559 276.921 245.766 273.874 250.483C270.827 255.2 269.313 259.642 270.493 260.404C271.672 261.165 275.098 257.959 278.145 253.242Z" fill="#2F2E41"/>
<path d="M253.588 237.38C256.635 232.662 258.149 228.221 256.97 227.459C255.791 226.697 252.364 229.904 249.317 234.621C246.27 239.338 244.756 243.78 245.936 244.542C247.115 245.303 250.541 242.097 253.588 237.38Z" fill="#2F2E41"/>
<path d="M333.626 386C387.66 386 431.464 382.659 431.464 378.538C431.464 374.416 387.66 371.075 333.626 371.075C279.591 371.075 235.787 374.416 235.787 378.538C235.787 382.659 279.591 386 333.626 386Z" fill="#CECECE"/>
<path d="M146.254 350.234C200.289 350.234 244.093 346.893 244.093 342.772C244.093 338.65 200.289 335.309 146.254 335.309C92.2194 335.309 48.4155 338.65 48.4155 342.772C48.4155 346.893 92.2194 350.234 146.254 350.234Z" fill="#CECECE"/>
<path d="M414.106 342.756C413.785 354.745 411.777 366.628 408.141 378.057C408.058 378.322 407.971 378.584 407.884 378.849H385.621C385.645 378.611 385.669 378.346 385.692 378.057C387.177 360.992 395.735 257.13 385.502 239.369C386.397 240.809 415.832 288.533 414.106 342.756Z" fill="#CECECE"/>
<path d="M412.436 378.057C412.25 378.322 412.056 378.588 411.858 378.849H395.157C395.284 378.623 395.43 378.358 395.6 378.057C398.359 373.077 406.526 358.19 414.106 342.756C422.253 326.17 429.726 308.954 429.097 302.724C429.291 304.129 434.928 346.967 412.436 378.057Z" fill="#CECECE"/>
<path d="M256.361 360.528C256.524 366.614 257.544 372.646 259.389 378.447C259.431 378.582 259.476 378.714 259.52 378.849H270.82C270.808 378.728 270.796 378.594 270.784 378.447C270.03 369.785 265.686 317.066 270.88 308.051C270.426 308.782 255.485 333.006 256.361 360.528Z" fill="#CECECE"/>
<path d="M257.209 378.447C257.304 378.582 257.402 378.716 257.503 378.849H265.98C265.916 378.734 265.841 378.6 265.755 378.447C264.354 375.919 260.209 368.363 256.362 360.528C252.227 352.11 248.433 343.371 248.753 340.209C248.654 340.922 245.793 362.666 257.209 378.447Z" fill="#CECECE"/>
<path d="M270.784 228.76C270.784 228.76 251.906 247.261 259.835 249.527C267.764 251.792 276.825 232.536 276.825 232.536L270.784 228.76Z" fill="#A0616A"/>
<path d="M289.662 291.059L287.397 301.631L304.387 302.386L301.744 291.059H289.662Z" fill="#A0616A"/>
<path d="M343.277 356.378L341.012 366.95L358.002 367.705L355.359 356.378H343.277Z" fill="#A0616A"/>
<path d="M313.449 220.454L314.959 226.495C314.959 226.495 273.049 218.189 275.315 239.332C277.58 260.476 287.397 280.865 287.397 280.865C287.397 280.865 286.642 287.661 288.152 288.794C289.662 289.926 288.152 293.702 288.152 293.702C288.152 293.702 302.122 295.59 302.5 292.192C302.702 289.92 302.575 287.631 302.122 285.396C302.122 285.396 302.877 285.396 302.122 281.62C301.367 277.844 298.317 247.395 296.051 243.241C296.051 243.241 316.092 258.588 326.664 256.701C326.664 256.701 325.154 271.803 331.195 291.814C337.236 311.825 337.236 314.091 337.236 314.091C337.236 314.091 344.41 352.225 342.522 356.756L342.144 358.644H356.114C356.114 358.644 354.982 338.633 356.114 335.99C357.247 333.347 357.247 310.693 350.828 299.366C346.283 291.344 347.129 268.086 349.616 258.893C351.704 251.173 352.231 245.231 351.007 237.328C349.698 228.877 345.79 224.459 341.012 220.454H313.449Z" fill="#373660"/>
<path d="M324.588 163.63C332.095 163.63 338.18 157.545 338.18 150.038C338.18 142.531 332.095 136.445 324.588 136.445C317.081 136.445 310.995 142.531 310.995 150.038C310.995 157.545 317.081 163.63 324.588 163.63Z" fill="#A0616A"/>
<path d="M321.001 159.666C321.001 159.666 325.154 171.748 324.776 174.013C324.399 176.279 336.858 169.482 336.858 169.482C336.858 169.482 331.95 157.4 333.46 154.002L321.001 159.666Z" fill="#A0616A"/>
<path d="M336.103 165.329L322.889 170.615L323.644 175.146C323.644 175.146 322.511 176.656 322.889 177.411C323.266 178.166 317.98 181.187 318.735 182.32C319.49 183.452 314.205 187.983 314.582 189.116C314.96 190.249 302.5 197.045 309.296 210.26C309.296 210.26 312.82 214.84 312.378 220.257C312.363 220.448 312.342 220.639 312.317 220.832C311.562 226.495 341.012 220.076 341.012 220.076V213.658C341.012 213.658 343.655 212.525 343.277 207.617C342.9 202.708 340.634 204.974 343.277 202.331C345.92 199.688 345.92 200.065 345.543 197.8C345.392 196.895 345.361 193.642 345.379 190.061C345.414 182.494 342.95 175.128 338.369 169.105L336.103 165.329Z" fill="#FE6C61"/>
<path d="M328.929 175.146L304.387 200.821L268.519 229.138L276.447 235.557L342.522 191.381C342.522 191.381 348.185 167.217 328.929 175.146Z" fill="#FE6C61"/>
<path d="M290.795 296.723C290.795 296.723 288.152 292.192 286.264 293.702L273.05 304.274C273.05 304.274 249.64 311.07 272.294 316.356C272.294 316.356 284.754 318.244 287.397 316.356C290.04 314.468 294.193 314.846 295.326 315.601C296.459 316.356 310.806 315.224 310.806 312.203C310.806 309.183 302.893 295.981 302.893 295.981C302.893 295.981 298.347 301.254 290.795 296.723Z" fill="#2F2E41"/>
<path d="M344.41 362.042C344.41 362.042 341.767 357.511 339.879 359.021L326.664 369.593C326.664 369.593 303.255 376.389 325.909 381.675C325.909 381.675 338.369 383.563 341.012 381.675C343.655 379.787 347.808 380.165 348.941 380.92C350.073 381.675 364.421 380.543 364.421 377.522C364.421 374.502 356.508 361.3 356.508 361.3C356.508 361.3 351.961 366.573 344.41 362.042Z" fill="#2F2E41"/>
<path d="M308.298 144.647C308.298 144.647 310.596 124.445 330.252 130.181C330.252 130.181 344.158 127.353 349.069 144.72L354.054 162.928L351.772 161.742L350.764 164.064L347.122 165.061L345.496 161.983L344.811 165.772L319.662 170.856C319.662 170.856 328.168 161.139 328.107 146.906L325.602 149.657L308.298 144.647Z" fill="#2F2E41"/>
<path d="M173.236 128.22H141.796V167.426H173.236V128.22Z" fill="#2F2E41"/>
<path d="M115.834 311.103L111.547 326.881L118.692 332.141L120.598 330.706L123.932 314.45L115.834 311.103Z" fill="#FFB8B8"/>
<path d="M169.663 309.669L168.234 328.794H177.285V311.103L169.663 309.669Z" fill="#FFB8B8"/>
<path d="M141.081 188.703V200.178L158.707 203.046L173.95 196.831L171.092 189.659L141.081 188.703Z" fill="#FFB8B8"/>
<path d="M155.372 198.265L140.128 195.397L136.317 226.475L126.79 265.203C126.79 265.203 112.499 298.194 114.405 305.844L115.358 308.234L114.405 312.538L123.932 316.363L127.743 310.147C127.743 310.147 130.601 314.45 135.365 305.366C140.128 296.281 160.136 239.862 160.136 239.862L163.47 249.425C162.608 252.375 162.445 255.485 162.994 258.509C163.947 263.291 164.899 278.112 164.899 278.112C164.899 278.112 159.659 303.931 166.805 305.844L168.234 311.581L178.237 312.538L180.143 306.8C180.143 306.8 189.67 303.453 187.288 286.719C184.907 269.984 183.954 215 183.954 215L174.569 191.775L155.372 198.265Z" fill="#373660"/>
<path d="M114.405 325.925C114.405 325.925 112.023 324.013 111.07 324.491C110.117 324.969 100.114 337.878 100.114 337.878C100.114 337.878 89.6338 346.007 97.2556 346.963C104.877 347.919 125.837 337.4 125.837 335.01C125.837 332.619 121.433 326.632 121.433 326.632C121.433 326.632 118.216 329.272 114.405 325.925Z" fill="#2F2E41"/>
<path d="M167.281 324.491C167.281 324.491 175.856 323.956 177.285 325.419C178.714 326.881 178.238 334.053 178.238 334.053C178.238 334.053 179.19 346.963 171.568 346.963C163.947 346.963 165.852 338.357 165.852 338.357L167.281 324.491Z" fill="#2F2E41"/>
<path d="M158.707 146.628C165.284 146.628 170.616 141.276 170.616 134.675C170.616 128.073 165.284 122.721 158.707 122.721C152.129 122.721 146.797 128.073 146.797 134.675C146.797 141.276 152.129 146.628 158.707 146.628Z" fill="#FFB8B8"/>
<path d="M150.847 142.086C150.847 142.086 157.516 150.214 144.178 156.429C130.839 162.645 153.705 188.464 153.705 188.464C153.705 188.464 180.381 178.423 177.999 158.82C177.999 158.82 161.803 155.951 165.614 142.564L150.847 142.086Z" fill="#FFB8B8"/>
<path d="M143.701 155.951C143.701 155.951 132.745 154.517 132.268 163.601C131.792 172.686 132.268 194.679 132.268 194.679C132.268 194.679 127.505 213.804 129.887 230.539C129.887 230.539 127.028 250.142 134.65 249.186C142.272 248.23 136.556 229.104 136.556 229.104L139.89 198.026L138.461 175.076L144.654 161.21L143.701 155.951Z" fill="#FFB8B8"/>
<path d="M175.233 158.063C175.233 158.063 185.621 157.864 186.098 165.514C186.574 173.164 182.763 196.592 182.763 196.592L177.047 199.461L171.807 183.204L175.233 158.063Z" fill="#FFB8B8"/>
<path d="M178.238 197.309L177.285 199.7L180.143 206.872C180.143 206.872 168.71 215.956 169.663 217.868C170.616 219.781 175.856 215.478 175.856 215.478L183.478 219.303C183.478 219.303 189.67 212.609 186.812 206.393C185.229 203.052 183.904 199.594 182.85 196.05C182.85 196.05 178.714 195.875 178.238 197.309Z" fill="#FFB8B8"/>
<path d="M141.558 154.278L140.129 170.056C140.129 170.056 133.459 176.75 141.081 185.834L140.129 193.006C140.129 193.006 157.754 192.05 161.089 193.006C164.423 193.962 174.721 192.236 174.721 192.236L174.903 186.79C174.903 186.79 179.667 180.097 178.238 170.056C176.808 160.015 178.238 156.668 178.238 156.668L174.903 156.19C174.903 156.19 172.759 170.773 157.992 172.208C157.992 172.208 139.652 173.881 144.892 154.278L141.558 154.278Z" fill="#E6E6E6"/>
<path d="M159.898 115.31C159.898 115.31 147.512 114.54 144.654 122.27C141.796 130 136.794 134.059 136.794 134.059C136.794 134.059 128.915 139.556 132.854 149.369C132.854 149.369 120.598 157.636 128.696 164.98C128.696 164.98 128.219 172.324 132.983 177.349C132.983 177.349 136.794 179.281 135.365 180.441C133.936 181.6 144.892 180.827 143.939 170.391C142.987 159.956 149.418 152.604 149.418 152.604C149.418 152.604 143.225 139.074 146.083 134.435C147.818 131.619 148.564 129.519 150.004 128.304C150.807 127.643 151.551 126.914 152.228 126.126C152.867 125.313 153.737 124.713 154.723 124.405C155.709 124.096 156.766 124.093 157.754 124.396C162.041 125.555 162.994 129.034 162.994 129.034C162.994 129.034 166.09 137.344 171.33 141.209C176.57 145.075 167.281 151.839 167.281 151.839C167.281 151.839 168.896 159.802 173.09 164.517C177.285 169.232 171.882 173.342 171.568 173.87C170.854 175.076 168 182.693 179.788 182.726C179.788 182.726 182.525 176.962 186.336 173.484C190.147 170.005 187.288 159.956 187.288 159.956C187.288 159.956 193.005 156.477 186.812 147.973C186.812 147.973 188.718 140.243 183.478 135.218C183.478 135.218 176.094 112.605 159.898 115.31Z" fill="#2F2E41"/>
<path d="M145.845 136.348C146.503 136.348 147.036 135.492 147.036 134.436C147.036 133.379 146.503 132.523 145.845 132.523C145.187 132.523 144.654 133.379 144.654 134.436C144.654 135.492 145.187 136.348 145.845 136.348Z" fill="#FFB8B8"/>
<path d="M88.963 331.654H59.7292V335.043H88.963V331.654Z" fill="#2F2E41"/>
<path d="M88.9632 343.517C90.3671 343.517 91.5052 338.964 91.5052 333.349C91.5052 327.733 90.3671 323.18 88.9632 323.18C87.5592 323.18 86.4211 327.733 86.4211 333.349C86.4211 338.964 87.5592 343.517 88.9632 343.517Z" fill="#2F2E41"/>
<path d="M59.7294 343.517C61.1333 343.517 62.2715 338.964 62.2715 333.349C62.2715 327.733 61.1333 323.18 59.7294 323.18C58.3254 323.18 57.1873 327.733 57.1873 333.349C57.1873 338.964 58.3254 343.517 59.7294 343.517Z" fill="#2F2E41"/>
<path d="M82.0235 331.654H52.7897V335.043H82.0235V331.654Z" fill="#2F2E41"/>
<path d="M82.0234 343.517C83.4273 343.517 84.5655 338.964 84.5655 333.349C84.5655 327.733 83.4273 323.18 82.0234 323.18C80.6194 323.18 79.4813 327.733 79.4813 333.349C79.4813 338.964 80.6194 343.517 82.0234 343.517Z" fill="#2F2E41"/>
<path d="M52.7896 343.517C54.1936 343.517 55.3317 338.964 55.3317 333.349C55.3317 327.733 54.1936 323.18 52.7896 323.18C51.3857 323.18 50.2476 327.733 50.2476 333.349C50.2476 338.964 51.3857 343.517 52.7896 343.517Z" fill="#2F2E41"/>
<path d="M414.594 365.818H385.36V369.208H414.594V365.818Z" fill="#2F2E41"/>
<path d="M414.594 377.681C415.998 377.681 417.136 373.129 417.136 367.513C417.136 361.897 415.998 357.345 414.594 357.345C413.19 357.345 412.052 361.897 412.052 367.513C412.052 373.129 413.19 377.681 414.594 377.681Z" fill="#2F2E41"/>
<path d="M385.36 377.681C386.764 377.681 387.903 373.129 387.903 367.513C387.903 361.897 386.764 357.345 385.36 357.345C383.956 357.345 382.818 361.897 382.818 367.513C382.818 373.129 383.956 377.681 385.36 377.681Z" fill="#2F2E41"/>
</svg>
