<svg width="122" height="31" viewBox="0 0 122 31" fill="none" xmlns="http://www.w3.org/2000/svg">
<path d="M48.68 13.08C48.3707 12.4293 47.9227 11.928 47.336 11.576C46.7493 11.2133 46.0667 11.032 45.288 11.032C44.5093 11.032 43.8053 11.2133 43.176 11.576C42.5573 11.928 42.0667 12.44 41.704 13.112C41.352 13.7733 41.176 14.5413 41.176 15.416C41.176 16.2907 41.352 17.0587 41.704 17.72C42.0667 18.3813 42.5573 18.8933 43.176 19.256C43.8053 19.608 44.5093 19.784 45.288 19.784C46.376 19.784 47.272 19.4587 47.976 18.808C48.68 18.1573 49.0907 17.2773 49.208 16.168H44.76V14.984H50.76V16.104C50.6747 17.0213 50.3867 17.864 49.896 18.632C49.4053 19.3893 48.76 19.992 47.96 20.44C47.16 20.8773 46.2693 21.096 45.288 21.096C44.2533 21.096 43.3093 20.856 42.456 20.376C41.6027 19.8853 40.9253 19.208 40.424 18.344C39.9333 17.48 39.688 16.504 39.688 15.416C39.688 14.328 39.9333 13.352 40.424 12.488C40.9253 11.6133 41.6027 10.936 42.456 10.456C43.3093 9.96533 44.2533 9.72 45.288 9.72C46.472 9.72 47.5173 10.0133 48.424 10.6C49.3413 11.1867 50.008 12.0133 50.424 13.08H48.68ZM60.2371 12.232L54.9571 25.128H53.4531L55.1811 20.904L51.6451 12.232H53.2611L56.0131 19.336L58.7331 12.232H60.2371ZM72.2448 12.072C72.9274 12.072 73.5354 12.216 74.0688 12.504C74.6021 12.7813 75.0234 13.2027 75.3328 13.768C75.6421 14.3333 75.7968 15.0213 75.7968 15.832V21H74.3568V16.04C74.3568 15.1653 74.1381 14.4987 73.7008 14.04C73.2741 13.5707 72.6928 13.336 71.9568 13.336C71.1994 13.336 70.5968 13.5813 70.1488 14.072C69.7008 14.552 69.4768 15.2507 69.4768 16.168V21H68.0368V16.04C68.0368 15.1653 67.8181 14.4987 67.3808 14.04C66.9541 13.5707 66.3728 13.336 65.6368 13.336C64.8794 13.336 64.2768 13.5813 63.8288 14.072C63.3808 14.552 63.1568 15.2507 63.1568 16.168V21H61.7008V12.232H63.1568V13.496C63.4448 13.0373 63.8288 12.6853 64.3088 12.44C64.7994 12.1947 65.3381 12.072 65.9248 12.072C66.6608 12.072 67.3114 12.2373 67.8768 12.568C68.4421 12.8987 68.8634 13.384 69.1408 14.024C69.3861 13.4053 69.7914 12.9253 70.3568 12.584C70.9221 12.2427 71.5514 12.072 72.2448 12.072Z" fill="#E4E4E4"/>
<path d="M87.6731 9.768V21H84.9371V16.376H80.6811V21H77.9451V9.768H80.6811V14.168H84.9371V9.768H87.6731ZM98.4643 12.072V21H95.7283V19.784C95.4509 20.1787 95.0723 20.4987 94.5923 20.744C94.1229 20.9787 93.6003 21.096 93.0243 21.096C92.3416 21.096 91.7389 20.9467 91.2163 20.648C90.6936 20.3387 90.2883 19.896 90.0003 19.32C89.7123 18.744 89.5683 18.0667 89.5683 17.288V12.072H92.2883V16.92C92.2883 17.5173 92.4429 17.9813 92.7523 18.312C93.0616 18.6427 93.4776 18.808 94.0003 18.808C94.5336 18.808 94.9549 18.6427 95.2643 18.312C95.5736 17.9813 95.7283 17.5173 95.7283 16.92V12.072H98.4643ZM103.166 13.336C103.422 12.92 103.79 12.584 104.27 12.328C104.75 12.072 105.299 11.944 105.918 11.944C106.654 11.944 107.32 12.1307 107.918 12.504C108.515 12.8773 108.984 13.4107 109.326 14.104C109.678 14.7973 109.854 15.6027 109.854 16.52C109.854 17.4373 109.678 18.248 109.326 18.952C108.984 19.6453 108.515 20.184 107.918 20.568C107.32 20.9413 106.654 21.128 105.918 21.128C105.288 21.128 104.739 21.0053 104.27 20.76C103.8 20.504 103.432 20.168 103.166 19.752V21H100.43V9.16H103.166V13.336ZM107.07 16.52C107.07 15.8373 106.878 15.304 106.494 14.92C106.12 14.5253 105.656 14.328 105.102 14.328C104.558 14.328 104.094 14.5253 103.71 14.92C103.336 15.3147 103.15 15.8533 103.15 16.536C103.15 17.2187 103.336 17.7573 103.71 18.152C104.094 18.5467 104.558 18.744 105.102 18.744C105.646 18.744 106.11 18.5467 106.494 18.152C106.878 17.7467 107.07 17.2027 107.07 16.52Z" fill="#FF6D60"/>
<mask id="mask0_34_51" style="mask-type:luminance" maskUnits="userSpaceOnUse" x="0" y="0" width="31" height="31">
<path d="M30.625 0H0V30.625H30.625V0Z" fill="white"/>
</mask>
<g mask="url(#mask0_34_51)">
<path d="M2.99801 13.4298C2.87363 12.9657 2.87361 12.477 2.99796 12.0129C3.12231 11.5489 3.36664 11.1257 3.7064 10.7859L10.7861 3.70625C11.1258 3.3665 11.549 3.12217 12.0131 2.99782C12.4772 2.87347 12.9658 2.87349 13.4299 2.99787L20.0547 4.77298C20.1237 3.86541 20.4397 2.99398 20.9684 2.2531L12.9893 0.115324C12.4166 -0.0381191 11.8136 -0.0381159 11.2409 0.115334C10.6682 0.268785 10.1459 0.570277 9.72667 0.989509L0.989812 9.72636C0.570579 10.1456 0.269089 10.6679 0.115639 11.2406C-0.0378107 11.8133 -0.037814 12.4163 0.115629 12.989L2.33565 21.2742C3.06137 20.7199 3.92541 20.3757 4.83343 20.2792L2.99801 13.4298Z" fill="#FF6D60"/>
<path d="M25.7312 10.117L27.628 17.1953C27.7524 17.6595 27.7522 18.1481 27.628 18.6121C27.5035 19.0763 27.2591 19.4994 26.9194 19.8391L19.8397 26.919C19.5 27.2587 19.0768 27.503 18.6127 27.6274C18.1487 27.7517 17.6599 27.7517 17.1959 27.6274L10.3465 25.792C10.25 26.7 9.90578 27.5641 9.3515 28.2898L17.6366 30.5098C18.2093 30.6633 18.8124 30.6633 19.385 30.5098C19.9578 30.3563 20.48 30.0549 20.8993 29.6356L29.6362 20.8987C30.0555 20.4794 30.3568 19.9573 30.5103 19.3844C30.6638 18.8118 30.6638 18.2087 30.5103 17.6361L28.2066 9.04077C27.4962 9.62059 26.6396 9.993 25.7312 10.117Z" fill="#FF6D60"/>
<path d="M2.53451 22.4166C1.9734 22.9777 1.59128 23.6927 1.43647 24.4708C1.28166 25.2492 1.36111 26.0559 1.66478 26.789C1.96844 27.522 2.48268 28.1487 3.14245 28.5896C3.80224 29.0303 4.57793 29.2657 5.37146 29.2657C6.16497 29.2657 6.94067 29.0303 7.60044 28.5896C8.26023 28.1487 8.77447 27.522 9.07813 26.789C9.3818 26.0559 9.46125 25.2492 9.30643 24.4708C9.15163 23.6927 8.76951 22.9777 8.2084 22.4166C7.45541 21.6654 6.43514 21.2434 5.37146 21.2434C4.30777 21.2434 3.2875 21.6654 2.53451 22.4166Z" fill="#E4E4E4"/>
<path d="M22.2093 2.32753C21.6483 2.88862 21.266 3.6035 21.1114 4.38178C20.9565 5.16004 21.0359 5.96674 21.3396 6.69986C21.6433 7.43296 22.1575 8.05958 22.8172 8.50042C23.4771 8.94129 24.2527 9.17659 25.0462 9.17659C25.8398 9.17659 26.6155 8.94129 27.2753 8.50042C27.935 8.05958 28.4492 7.43296 28.7529 6.69986C29.0566 5.96674 29.136 5.16004 28.9812 4.38178C28.8265 3.6035 28.4442 2.88862 27.8832 2.32753C27.1303 1.57623 26.1099 1.1543 25.0462 1.1543C23.9826 1.1543 22.9622 1.57623 22.2093 2.32753Z" fill="#E4E4E4"/>
<path d="M17.6677 25.9475C17.5066 25.9475 17.3463 25.9264 17.1906 25.8847L10.9208 24.2046C10.7117 23.0882 10.1701 22.0611 9.367 21.258C8.56385 20.4549 7.53671 19.9131 6.42031 19.7041L4.74039 13.4348C4.6571 13.1221 4.65734 12.793 4.7411 12.4805C4.82486 12.1679 4.9892 11.8828 5.21768 11.6536L11.6529 5.21815C11.8819 4.98922 12.167 4.8246 12.4797 4.7408C12.7924 4.65702 13.1217 4.65704 13.4344 4.74085L19.5284 6.37376C19.7701 7.48325 20.3413 8.49386 21.1671 9.27323C21.993 10.0526 23.0349 10.5644 24.1565 10.7415L25.8843 17.1911C25.9675 17.5039 25.9673 17.833 25.8834 18.1455C25.7997 18.4582 25.6354 18.7432 25.4068 18.9725L18.9715 25.4078C18.8008 25.5794 18.5974 25.7156 18.3736 25.8081C18.1499 25.9008 17.91 25.9482 17.6677 25.9475Z" fill="#E4E4E4"/>
</g>
</svg>
