<svg width="62" height="62" viewBox="0 0 62 62" fill="none" xmlns="http://www.w3.org/2000/svg">
<mask id="mask0_40_37" style="mask-type:luminance" maskUnits="userSpaceOnUse" x="0" y="0" width="62" height="62">
<path d="M62 0H0V62H62V0Z" fill="white"/>
</mask>
<g mask="url(#mask0_40_37)">
<path d="M6.06906 27.1882C5.81725 26.2487 5.81722 25.2594 6.06896 24.3199C6.32071 23.3803 6.81535 22.5236 7.50318 21.8358L21.8359 7.50308C22.5237 6.81525 23.3804 6.32061 24.32 6.06886C25.2595 5.81712 26.2488 5.81715 27.1883 6.06897L40.6002 9.66267C40.7398 7.82529 41.3795 6.0611 42.45 4.56119L26.2964 0.233283C25.1369 -0.0773608 23.9161 -0.0773544 22.7567 0.233304C21.5972 0.543963 20.54 1.15433 19.6912 2.00306L2.00348 19.6907C1.15475 20.5396 0.544388 21.5968 0.233731 22.7562C-0.0769271 23.9157 -0.0769338 25.1365 0.233711 26.2959L4.72811 43.0691C6.19734 41.9471 7.94657 41.2502 9.78485 41.0548L6.06906 27.1882Z" fill="#FF6D60"/>
<path d="M52.0925 20.4819L55.9324 34.8119C56.1843 35.7516 56.184 36.7408 55.9324 37.6802C55.6805 38.6199 55.1857 39.4765 54.4979 40.1643L40.1652 54.4974C39.4774 55.1852 38.6207 55.6796 37.681 55.9315C36.7416 56.1831 35.7522 56.1831 34.8128 55.9315L20.9462 52.2157C20.7508 54.0541 20.054 55.8034 18.9319 57.2725L35.7051 61.7669C36.8644 62.0776 38.0853 62.0776 39.2446 61.7669C40.4043 61.4561 41.4614 60.846 42.3103 59.9971L59.9979 42.3094C60.8468 41.4605 61.457 40.4034 61.7677 39.2438C62.0785 38.0844 62.0785 36.8635 61.7677 35.7042L57.1038 18.3031C55.6657 19.4769 53.9315 20.2309 52.0925 20.4819Z" fill="#FF6D60"/>
<path d="M5.13088 45.3821C3.99492 46.5179 3.22132 47.9655 2.90791 49.5409C2.5945 51.1166 2.75535 52.7498 3.37012 54.234C3.98487 55.7179 5.02595 56.9866 6.36165 57.8792C7.69739 58.7715 9.26776 59.2481 10.8742 59.2481C12.4807 59.2481 14.0511 58.7715 15.3868 57.8792C16.7225 56.9866 17.7636 55.7179 18.3784 54.234C18.9932 52.7498 19.154 51.1166 18.8406 49.5409C18.5272 47.9655 17.7536 46.5179 16.6176 45.3821C15.0932 43.8612 13.0277 43.007 10.8742 43.007C8.72082 43.007 6.6553 43.8612 5.13088 45.3821Z" fill="#373660"/>
<path d="M44.9624 4.71198C43.8267 5.84791 43.0528 7.29518 42.7396 8.87079C42.4262 10.4464 42.5869 12.0795 43.2017 13.5637C43.8166 15.0479 44.8575 16.3165 46.1931 17.2089C47.529 18.1015 49.0993 18.5779 50.7056 18.5779C52.3123 18.5779 53.8826 18.1015 55.2185 17.2089C56.5541 16.3165 57.595 15.0479 58.2099 13.5637C58.8247 12.0795 58.9854 10.4464 58.672 8.87079C58.3589 7.29518 57.585 5.84791 56.4492 4.71198C54.9249 3.19099 52.8592 2.33679 50.7056 2.33679C48.5524 2.33679 46.4867 3.19099 44.9624 4.71198Z" fill="#373660"/>
<path d="M35.7682 52.5304C35.442 52.5304 35.1174 52.4877 34.8023 52.4033L22.1091 49.0019C21.6859 46.7418 20.5894 44.6622 18.9634 43.0364C17.3375 41.4106 15.2581 40.3138 12.9979 39.8907L9.59692 27.1986C9.42832 26.5655 9.42879 25.8993 9.59837 25.2665C9.76795 24.6336 10.1006 24.0564 10.5632 23.5924L23.5913 10.564C24.0548 10.1005 24.632 9.76723 25.2651 9.59758C25.8982 9.42797 26.5648 9.428 27.1978 9.59768L39.5351 12.9035C40.0245 15.1496 41.1808 17.1956 42.8527 18.7734C44.5246 20.3512 46.6341 21.3873 48.9046 21.746L52.4025 34.803C52.571 35.4363 52.5707 36.1026 52.4008 36.7353C52.2313 37.3682 51.8987 37.9454 51.4359 38.4095L38.4077 51.4376C38.062 51.7851 37.6503 52.0609 37.1973 52.2482C36.7442 52.4359 36.2586 52.5317 35.7682 52.5304Z" fill="#373660"/>
</g>
</svg>
