<svg width="22" height="25" viewBox="0 0 22 25" fill="none" xmlns="http://www.w3.org/2000/svg">
<path fill-rule="evenodd" clip-rule="evenodd" d="M10.9995 0C8.75744 0 6.60725 0.949437 5.02191 2.63944C3.43656 4.32945 2.54593 6.62159 2.54593 9.01163V9.83023C2.54586 10.6406 2.3208 11.4328 1.8991 12.107L0.647975 14.1105C-0.807123 16.436 0.303289 19.5965 2.8328 20.3314C3.65634 20.5709 4.48751 20.7733 5.32414 20.9395L5.32632 20.9453C6.16404 23.3314 8.40559 25 10.9995 25C13.5933 25 15.8349 23.3314 16.6737 20.9453L16.6759 20.9395C17.5138 20.7733 18.3449 20.5705 19.1672 20.3314C21.6967 19.5965 22.8071 16.436 21.352 14.1105L20.0998 12.107C19.6781 11.4328 19.453 10.6406 19.453 9.83023V9.01163C19.453 6.62159 18.5623 4.32945 16.977 2.63944C15.3917 0.949437 13.2415 0 10.9995 0ZM14.6819 21.264C12.2353 21.5756 9.76254 21.5756 7.3159 21.264C8.09144 22.4512 9.44073 23.2558 10.9995 23.2558C12.5582 23.2558 13.9064 22.4512 14.6819 21.264ZM4.18209 9.01163C4.18209 7.08418 4.90035 5.23568 6.17885 3.87277C7.45736 2.50986 9.19138 1.74419 10.9995 1.74419C12.8075 1.74419 14.5416 2.50986 15.8201 3.87277C17.0986 5.23568 17.8168 7.08418 17.8168 9.01163V9.83023C17.8168 10.9849 18.1375 12.114 18.7385 13.0744L19.9907 15.0779C20.1848 15.3877 20.3069 15.7422 20.3471 16.1122C20.3873 16.4822 20.3443 16.8571 20.2218 17.206C20.0992 17.5548 19.9006 17.8676 19.6423 18.1184C19.3841 18.3693 19.0735 18.5511 18.7363 18.6488C13.6706 20.1216 8.32726 20.1216 3.26148 18.6488C2.92461 18.5508 2.6144 18.3689 2.35639 18.1181C2.09839 17.8673 1.89997 17.5547 1.77747 17.2061C1.65498 16.8575 1.61192 16.4829 1.65184 16.1131C1.69176 15.7433 1.81352 15.3889 2.00708 15.0791L3.26148 13.0744C3.86199 12.1136 4.18232 10.9848 4.18209 9.83023V9.01163Z" fill="#9F9F9F"/>
</svg>
